<svg width="127" height="33" viewBox="0 0 127 33" fill="none" xmlns="http://www.w3.org/2000/svg">
<path d="M81.5093 10.5756L51.3307 0.0436894C50.9447 -0.0906746 50.5159 0.0952545 50.3735 0.459157C50.3732 0.459452 50.3732 0.459746 50.3729 0.460041L47.0322 9.02604C46.8901 9.38994 47.0881 9.79363 47.4745 9.9274H47.4751L50.9732 11.1373L50.2024 13.1153C50.0607 13.4792 50.2587 13.8823 50.6451 14.0161L57.6425 16.4361L57.1283 17.7547C56.661 18.9357 57.097 20.2652 58.1906 20.9915V24.5746H48.1614C47.6759 23.5291 46.6824 22.7701 45.496 22.5385V21.064C45.496 20.6762 45.1625 20.3618 44.7505 20.3618H41.7454C41.3338 20.3618 41 20.6762 41 21.064V32.2978C41 32.6859 41.3338 33 41.7454 33H44.7505C45.1625 33 45.496 32.6859 45.496 32.2978V30.8237C46.6824 30.5918 47.6759 29.833 48.1614 28.7873H58.1906V29.4894C58.1906 30.6528 59.1916 31.596 60.4265 31.596C61.6615 31.596 62.6628 30.6528 62.6628 29.4894V21.7114C63.3403 21.3949 63.8636 20.8459 64.1245 20.1771L64.6388 18.8585L70.9362 21.0351C71.0184 21.0637 71.1051 21.0781 71.1927 21.0781C71.5052 21.0781 71.7848 20.8946 71.8927 20.6182L72.1721 19.9013C74.5976 20.3312 76.9336 18.8275 77.3897 16.5431C77.5583 15.6989 77.4488 14.8264 77.0759 14.0426L81.5944 11.8571C81.9607 11.6803 82.1055 11.2572 81.9179 10.9121C81.8328 10.7554 81.6883 10.6346 81.5131 10.5736L81.5093 10.5756ZM59.6811 21.6312L60.2983 21.8419C60.5792 21.9368 60.8738 21.9913 61.1719 22.0034V24.5746H59.6811V21.6312ZM44.0054 31.596H42.4908V21.7662H44.0054V31.596ZM46.9868 27.3832C46.9855 28.2755 46.3887 29.0707 45.496 29.3695V23.9926C46.3887 24.2911 46.9855 25.0864 46.9868 25.9789V27.3832ZM48.5008 25.9789H61.1719V27.3832H48.5008V25.9789ZM60.4265 30.1916C60.0149 30.1916 59.6811 29.8772 59.6811 29.4894V28.7873H61.1719V29.4894C61.1719 29.8772 60.8382 30.1916 60.4265 30.1916ZM63.2396 18.3749L62.7253 19.6935C62.4413 20.4208 61.5851 20.7938 60.8125 20.5268L59.4105 20.043C58.6379 19.7758 58.2412 18.969 58.525 18.2409C58.525 18.2409 58.525 18.2409 58.525 18.2406L59.0395 16.9229L62.8176 18.2294L63.2396 18.3749ZM70.7507 19.4773L51.8584 12.9423L52.373 11.6237L63.5677 15.4961C63.8327 15.5869 64.1298 15.53 64.336 15.3485L66.4277 13.4936L72.2922 15.5227L70.7507 19.4773ZM75.7903 16.7331C75.318 17.9327 74.0477 18.6823 72.696 18.5588L73.8478 15.6034L75.729 14.6908C76.0233 15.3397 76.0452 16.0698 75.7903 16.7331ZM73.2744 14.3054C73.235 14.3087 73.1959 14.3152 73.1574 14.3249L66.5118 12.0262C66.2469 11.9346 65.9497 11.9915 65.7439 12.1736L63.6497 14.0287L48.6885 8.85337L51.5144 1.60538L79.4029 11.3382L73.2744 14.3054Z" fill="#E3B873"/>
<rect x="95" y="13" width="32" height="1.54334" rx="0.771672" fill="#E3B873"/>
<rect x="0.000488281" y="12.812" width="32" height="1.54334" rx="0.771672" fill="#E3B873"/>
</svg>
